<svg width="158" height="29" viewBox="0 0 158 29" fill="none" xmlns="http://www.w3.org/2000/svg">
<path d="M0.4 0.399999H12.4L21.92 22.2H22.68V0.399999H29.48V29H17.48L7.92 7.2H7.2V29H0.4V0.399999ZM61.3941 11.32L57.3941 14.72L61.3941 18.12V29H54.5941V18.12H39.1141V29H32.3141V18.12L36.3141 14.72L32.3141 11.32V0.399999H39.1141V11.32H54.5941V0.399999H61.3941V11.32ZM75.4281 7.2H64.2281V0.399999H93.3081V7.2H82.2281V29H75.4281V7.2ZM96.1422 0.399999H102.942V22.2H118.422V0.399999H125.222V29H96.1422V0.399999ZM128.056 0.399999H157.136V22.2H134.856V29H128.056V0.399999ZM150.336 15.4V7.2H134.856V15.4H150.336Z" fill="white"/>
</svg>
